<svg width="183" height="200" viewBox="0 0 183 200" fill="none" xmlns="http://www.w3.org/2000/svg">
<path d="M31.7871 17.7518L28.3359 14.2863C29.2233 13.2679 29.7095 11.9865 29.7095 10.6525C29.7095 7.53576 27.083 5 23.8547 5C20.6265 5 18 7.53576 18 10.6525C18 13.7692 20.6265 16.305 23.8547 16.305C25.0667 16.305 26.2216 15.9521 27.209 15.2821L30.6864 18.7739C30.8318 18.9196 31.0273 19 31.2368 19C31.4351 19 31.6232 18.927 31.766 18.7943C32.0694 18.5124 32.0791 18.045 31.7871 17.7518ZM23.8547 6.47456C26.2409 6.47456 28.1821 8.34873 28.1821 10.6525C28.1821 12.9563 26.2409 14.8304 23.8547 14.8304C21.4685 14.8304 19.5273 12.9563 19.5273 10.6525C19.5273 8.34873 21.4685 6.47456 23.8547 6.47456Z" fill="#4F4F4F"/>
<path d="M5 5L9 9L13 5H5Z" fill="#4F4F4F"/>
<path d="M47.2427 12.7573C46.5891 12.1039 45.8113 11.6201 44.9626 11.3272C45.8716 10.7012 46.4688 9.65347 46.4688 8.46875C46.4688 6.55609 44.9127 5 43 5C41.0873 5 39.5312 6.55609 39.5312 8.46875C39.5312 9.65347 40.1284 10.7012 41.0374 11.3272C40.1887 11.6201 39.4109 12.1039 38.7574 12.7573C37.6241 13.8906 37 15.3973 37 17H37.9375C37.9375 14.2085 40.2085 11.9375 43 11.9375C45.7915 11.9375 48.0625 14.2085 48.0625 17H49C49 15.3973 48.3759 13.8906 47.2427 12.7573ZM43 11C41.6043 11 40.4688 9.8645 40.4688 8.46875C40.4688 7.073 41.6043 5.9375 43 5.9375C44.3957 5.9375 45.5312 7.073 45.5312 8.46875C45.5312 9.8645 44.3957 11 43 11Z" fill="#4F4F4F"/>
<path d="M71.4189 20.5811C69.9063 20.5811 68.6758 21.8116 68.6758 23.3242C68.6758 24.8367 69.9064 26.0673 71.4189 26.0673C72.9315 26.0673 74.162 24.8367 74.162 23.3242C74.162 21.8116 72.9315 20.5811 71.4189 20.5811ZM71.4189 24.4215C70.8138 24.4215 70.3216 23.9293 70.3216 23.3242C70.3216 22.7191 70.8138 22.2269 71.4189 22.2269C72.024 22.2269 72.5162 22.7191 72.5162 23.3242C72.5162 23.9293 72.024 24.4215 71.4189 24.4215Z" fill="#4F4F4F"/>
<path d="M75.8251 9.97901C75.6693 9.77959 75.4304 9.66327 75.1772 9.66327H59.0798L58.3391 6.56435C58.2505 6.19404 57.9194 5.93262 57.5387 5.93262H54.8229C54.3684 5.93258 54 6.30099 54 6.75552C54 7.21004 54.3684 7.57846 54.8229 7.57846H56.8891L59.5637 18.7694C59.6523 19.14 59.9834 19.4011 60.3641 19.4011H73.1747C73.553 19.4011 73.8827 19.1433 73.9735 18.7762L75.976 10.6839C76.0366 10.4382 75.9809 10.1784 75.8251 9.97901ZM72.5309 17.7553H61.0137L59.4731 11.3091H74.1257L72.5309 17.7553Z" fill="#4F4F4F"/>
<path d="M61.4614 20.5811C59.9488 20.5811 58.7183 21.8116 58.7183 23.3242C58.7183 24.8367 59.9489 26.0673 61.4614 26.0673C62.974 26.0673 64.2046 24.8367 64.2046 23.3242C64.2046 21.8116 62.974 20.5811 61.4614 20.5811ZM61.4614 24.4215C60.8563 24.4215 60.3642 23.9293 60.3642 23.3242C60.3642 22.7191 60.8563 22.2269 61.4614 22.2269C62.0666 22.2269 62.5587 22.7191 62.5587 23.3242C62.5587 23.9293 62.0666 24.4215 61.4614 24.4215Z" fill="#4F4F4F"/>
<path d="M81 21H105V18.3333H81V21ZM81 14.3333H105V11.6667H81V14.3333ZM81 5V7.66667H105V5H81Z" fill="#828282"/>
<path d="M20 38L16.0784 42L15 40.95L17.8922 38L15 35.05L16.0784 34L20 38Z" fill="#9B9898"/>
<path d="M9 14L13 17.9216L11.95 19L9 16.1078L6.05 19L5 17.9216L9 14Z" fill="#9B9898"/>
<path d="M9 29L13 25.0784L11.95 24L9 26.8922L6.05 24L5 25.0784L9 29Z" fill="#9B9898"/>
<path d="M5 38L8.92157 42L10 40.95L7.10784 38L10 35.05L8.92157 34L5 38Z" fill="#9B9898"/>
<path d="M9.1426 53.0001L5.07339 48.9307C4.9757 48.833 4.9757 48.6747 5.07339 48.577L6.57672 47.0733C6.62362 47.0264 6.68741 47 6.75358 47C6.81987 47 6.88354 47.0264 6.93044 47.0733L10.9999 51.1428L15.0694 47.0733C15.1632 46.9795 15.3293 46.9795 15.4231 47.0733L16.9266 48.577C17.0242 48.6747 17.0242 48.833 16.9266 48.9307L12.8572 53.0001L16.9266 57.0694C17.0242 57.1671 17.0242 57.3254 16.9266 57.4231L15.4231 58.9267C15.3762 58.9736 15.3125 59 15.2462 59C15.1799 59 15.1163 58.9736 15.0694 58.9267L10.9999 54.8572L6.93044 58.9267C6.88354 58.9736 6.81987 59 6.75358 59C6.68741 59 6.62362 58.9736 6.57672 58.9267L5.07326 57.4231C4.97558 57.3254 4.97558 57.167 5.07326 57.0694L9.1426 53.0001Z" fill="#4F4F4F"/>
<path d="M30.5001 34L32.1995 37.2918L36 37.8198L33.2499 40.3819L33.8991 44L30.5001 42.2919L27.1009 44L27.7501 40.3819L25 37.8198L28.8005 37.2918L30.5001 34Z" fill="white"/>
<path d="M43.9368 49.8045C43.71 49.6109 43.3899 49.5701 43.1217 49.7007L39.0175 51.6987L35.1666 47.2586C35.0242 47.0944 34.8174 47 34.6 47C34.3826 47 34.1759 47.0944 34.0334 47.2586L30.1825 51.6986L26.0783 49.7006C25.8101 49.5701 25.4901 49.6109 25.2632 49.8045C25.0363 49.9981 24.9457 50.3078 25.0324 50.5931L27.8824 59.9681C27.9785 60.2841 28.2698 60.5 28.6 60.5H40.6C40.9302 60.5 41.2215 60.2841 41.3175 59.9682L44.1675 50.5932C44.2543 50.3078 44.1637 49.9981 43.9368 49.8045ZM40.0441 59H29.1559L26.9677 51.802L30.0435 53.2994C30.3489 53.448 30.7159 53.3729 30.9384 53.1164L34.6 48.8947L38.2617 53.1164C38.4841 53.373 38.8512 53.448 39.1565 53.2994L42.2323 51.802L40.0441 59Z" fill="white"/>
<path d="M102.505 78.2481L106.409 75.9999L102.505 73.7517V78.2481Z" fill="white" fill-opacity="0.88"/>
<path d="M104 64C97.3736 64 92 69.3736 92 76C92 82.6264 97.3736 88 104 88C110.626 88 116 82.6264 116 76C116 69.3736 110.626 64 104 64ZM111.498 76.0123C111.498 76.0123 111.498 78.4459 111.189 79.6194C111.016 80.2618 110.51 80.7682 109.868 80.9411C108.694 81.25 104 81.25 104 81.25C104 81.25 99.3182 81.25 98.1324 80.9288C97.4901 80.756 96.9836 80.2493 96.8105 79.607C96.5016 78.4459 96.5016 76 96.5016 76C96.5016 76 96.5016 73.5665 96.8105 72.393C96.9834 71.7507 97.5023 71.2318 98.1324 71.0589C99.3059 70.75 104 70.75 104 70.75C104 70.75 108.694 70.75 109.868 71.0712C110.51 71.244 111.016 71.7507 111.189 72.393C111.511 73.5665 111.498 76.0123 111.498 76.0123Z" fill="white" fill-opacity="0.88"/>
<path d="M75 64C68.3736 64 63 69.3736 63 76C63 82.6264 68.3736 88 75 88C81.6264 88 87 82.6264 87 76C87 69.3736 81.6264 64 75 64ZM71.5129 82.1406H68.5904V73.3481H71.5129V82.1406ZM70.0518 72.1475H70.0327C69.052 72.1475 68.4177 71.4724 68.4177 70.6286C68.4177 69.7658 69.0714 69.1094 70.0712 69.1094C71.0709 69.1094 71.6862 69.7658 71.7052 70.6286C71.7052 71.4724 71.0709 72.1475 70.0518 72.1475ZM82.051 82.1406H79.1288V77.4368C79.1288 76.2547 78.7057 75.4485 77.6483 75.4485C76.8409 75.4485 76.3601 75.9923 76.1488 76.5173C76.0715 76.7051 76.0527 76.9677 76.0527 77.2305V82.1406H73.1303C73.1303 82.1406 73.1686 74.173 73.1303 73.3481H76.0527V74.593C76.441 73.9939 77.1359 73.1417 78.6865 73.1417C80.6093 73.1417 82.051 74.3984 82.051 77.099V82.1406Z" fill="white" fill-opacity="0.88"/>
<path d="M46 64C39.3736 64 34 69.3736 34 76C34 82.6264 39.3736 88 46 88C52.6264 88 58 82.6264 58 76C58 69.3736 52.6264 64 46 64ZM51.4791 73.3563C51.4844 73.4744 51.4869 73.5931 51.4869 73.7123C51.4869 77.3519 48.7166 81.5488 43.6502 81.549H43.6504H43.6502C42.0947 81.549 40.6473 81.0931 39.4283 80.3118C39.6439 80.3372 39.8632 80.3499 40.0853 80.3499C41.3759 80.3499 42.5635 79.9097 43.5063 79.1708C42.3005 79.1485 41.2839 78.3522 40.9331 77.2578C41.101 77.29 41.2737 77.3076 41.4507 77.3076C41.7021 77.3076 41.9457 77.2737 42.1771 77.2105C40.9168 76.9582 39.9674 75.8444 39.9674 74.5106C39.9674 74.4982 39.9674 74.487 39.9678 74.4755C40.3389 74.6818 40.7634 74.806 41.2153 74.8199C40.4757 74.3264 39.9896 73.4828 39.9896 72.5272C39.9896 72.0226 40.126 71.5498 40.3625 71.1428C41.7208 72.8094 43.7507 73.9055 46.0399 74.0206C45.9927 73.8188 45.9683 73.6086 45.9683 73.3926C45.9683 71.8721 47.2019 70.6385 48.723 70.6385C49.5153 70.6385 50.2308 70.9734 50.7335 71.5088C51.361 71.385 51.9502 71.1558 52.4825 70.8403C52.2765 71.4832 51.84 72.0226 51.2712 72.3637C51.8284 72.2971 52.3594 72.1493 52.8529 71.9299C52.4843 72.4824 52.0168 72.9676 51.4791 73.3563Z" fill="white" fill-opacity="0.88"/>
<path d="M29 76C29 69.3736 23.6264 64 17 64C10.3736 64 5 69.3736 5 76C5 82.6264 10.3736 88 17 88C17.0705 88 17.1406 87.9985 17.2109 87.9973V78.6558H14.6328V75.6512H17.2109V73.4402C17.2109 70.876 18.7763 69.4803 21.0637 69.4803C22.159 69.4803 23.1005 69.562 23.375 69.5984V72.2784H21.7977C20.5533 72.2784 20.3124 72.8698 20.3124 73.7375V75.6512H23.2878L22.9 78.6558H20.3124V87.5364C25.3282 86.0984 29 81.4774 29 76Z" fill="white" fill-opacity="0.88"/>
<path d="M133.44 14.1389V14.139L124.89 22.4359C124.8 22.5227 124.649 22.5226 124.56 22.436V22.4358C124.479 22.3573 124.479 22.2364 124.56 22.158V22.1579L132.598 14.3581L132.967 14L132.598 13.6419L124.56 5.84212V5.84203C124.479 5.76355 124.479 5.6427 124.56 5.56422V5.56405C124.649 5.4774 124.8 5.47727 124.89 5.56413L133.44 13.861V13.8611C133.521 13.9396 133.521 14.0604 133.44 14.1389Z" stroke="#4F4F4F" stroke-width="0.998047"/>
<path d="M110.56 14.1389V14.139L119.11 22.4359C119.2 22.5227 119.351 22.5226 119.44 22.436V22.4358C119.521 22.3573 119.521 22.2364 119.44 22.158V22.1579L111.402 14.3581L111.033 14L111.402 13.6419L119.44 5.84212V5.84203C119.521 5.76355 119.521 5.6427 119.44 5.56422V5.56405C119.351 5.4774 119.2 5.47727 119.11 5.56413L110.56 13.861V13.8611C110.479 13.9396 110.479 14.0604 110.56 14.1389Z" stroke="#4F4F4F" stroke-width="0.998047"/>
<path d="M39 30.5L45 24.6176L43.425 23L39 27.3382L34.575 23L33 24.6176L39 30.5Z" fill="white"/>
<path d="M24 23L30 28.8824L28.425 30.5L24 26.1618L19.575 30.5L18 28.8824L24 23Z" fill="white"/>
<path d="M138 88C134.795 88 131.781 86.7518 129.515 84.4853C127.248 82.2188 126 79.2053 126 76C126 72.7947 127.248 69.7812 129.515 67.5147C131.781 65.2482 134.795 64 138 64C141.205 64 144.219 65.2482 146.485 67.5147C148.752 69.7812 150 72.7947 150 76C150 79.2053 148.752 82.2188 146.485 84.4853C144.219 86.7518 141.205 88 138 88ZM138 65.875C132.417 65.875 127.875 70.4171 127.875 76C127.875 81.5829 132.417 86.125 138 86.125C143.583 86.125 148.125 81.5829 148.125 76C148.125 70.4171 143.583 65.875 138 65.875ZM144.482 74.4062L143.156 73.0804L138 78.2366L132.844 73.0804L131.518 74.4062L138 80.8884L144.482 74.4062Z" fill="#828282"/>
<path d="M68.8095 35.9358H67.5V35.1057C67.5 34.495 66.967 34 66.3095 34H66.2619C65.6044 34 65.0714 34.495 65.0714 35.1057V35.9358H58.9286V35.1057C58.9286 34.495 58.3956 34 57.7381 34H57.6905C57.033 34 56.5 34.495 56.5 35.1057V35.9358H55.1905C54.533 35.9358 54 36.4308 54 37.0415V48.8943C54 49.5051 54.533 50 55.1905 50H68.8095C69.467 50 70 49.5051 70 48.8943V37.0415C70 36.4308 69.467 35.9358 68.8095 35.9358ZM68 48.253H56V39.275H68V48.253Z" fill="#C4C4C4"/>
<path d="M57.6314 43.3379H59.7027C59.8079 43.3379 59.8932 43.2587 59.8932 43.161V41.2372C59.8932 41.1396 59.8079 41.0603 59.7027 41.0603H57.6314C57.5262 41.0603 57.4409 41.1396 57.4409 41.2372V43.161C57.4409 43.2587 57.5262 43.3379 57.6314 43.3379Z" fill="#C4C4C4"/>
<path d="M60.9644 43.3379H63.0357C63.1409 43.3379 63.2262 43.2587 63.2262 43.161V41.2372C63.2262 41.1396 63.1409 41.0603 63.0357 41.0603H60.9644C60.8592 41.0603 60.7739 41.1396 60.7739 41.2372V43.161C60.7739 43.2587 60.8592 43.3379 60.9644 43.3379Z" fill="#C4C4C4"/>
<path d="M64.2979 43.3379H66.3692C66.4744 43.3379 66.5597 43.2587 66.5597 43.161V41.2372C66.5597 41.1396 66.4744 41.0603 66.3692 41.0603H64.2979C64.1927 41.0603 64.1074 41.1396 64.1074 41.2372V43.161C64.1074 43.2587 64.1927 43.3379 64.2979 43.3379Z" fill="#C4C4C4"/>
<path d="M57.6314 46.4336H59.7027C59.8079 46.4336 59.8932 46.3544 59.8932 46.2567V44.3329C59.8932 44.2352 59.8079 44.156 59.7027 44.156H57.6314C57.5262 44.156 57.4409 44.2352 57.4409 44.3329V46.2567C57.4409 46.3544 57.5262 46.4336 57.6314 46.4336Z" fill="#C4C4C4"/>
<path d="M60.9644 46.4336H63.0357C63.1409 46.4336 63.2262 46.3544 63.2262 46.2567V44.3329C63.2262 44.2352 63.1409 44.156 63.0357 44.156H60.9644C60.8592 44.156 60.7739 44.2352 60.7739 44.3329V46.2567C60.7739 46.3544 60.8592 46.4336 60.9644 46.4336Z" fill="#C4C4C4"/>
<path d="M64.2979 46.4336H66.3692C66.4744 46.4336 66.5597 46.3544 66.5597 46.2567V44.3329C66.5597 44.2352 66.4744 44.156 66.3692 44.156H64.2979C64.1927 44.156 64.1074 44.2352 64.1074 44.3329V46.2567C64.1074 46.3544 64.1927 46.4336 64.2979 46.4336Z" fill="#C4C4C4"/>
<path d="M98.8475 41.5117C98.6331 41.2049 93.5245 34 86.9999 34C80.4753 34 75.3665 41.2049 75.1523 41.5114C74.9492 41.8025 74.9492 42.1972 75.1523 42.4883C75.3665 42.7951 80.4753 50 86.9999 50C93.5245 50 98.6331 42.795 98.8475 42.4885C99.0508 42.1975 99.0508 41.8025 98.8475 41.5117ZM86.9999 48.3448C82.1938 48.3448 78.0313 43.5628 76.7991 41.9994C78.0297 40.4347 82.1835 35.6552 86.9999 35.6552C91.8057 35.6552 95.968 40.4364 97.2007 42.0006C95.9701 43.5652 91.8163 48.3448 86.9999 48.3448Z" fill="#C4C4C4"/>
<path d="M87.0002 37.0344C84.3826 37.0344 82.2529 39.262 82.2529 42C82.2529 44.7379 84.3826 46.9655 87.0002 46.9655C89.6178 46.9655 91.7475 44.7379 91.7475 42C91.7475 39.262 89.6178 37.0344 87.0002 37.0344ZM87.0002 45.3103C85.2551 45.3103 83.8354 43.8253 83.8354 42C83.8354 40.1746 85.2551 38.6896 87.0002 38.6896C88.7453 38.6896 90.165 40.1746 90.165 42C90.165 43.8253 88.7454 45.3103 87.0002 45.3103Z" fill="#C4C4C4"/>
<path d="M75 94C68.3736 94 63 99.3736 63 106C63 112.626 68.3736 118 75 118C81.6264 118 87 112.626 87 106C87 99.3736 81.6264 94 75 94ZM71.5129 112.141H68.5904V103.348H71.5129V112.141ZM70.0518 102.147H70.0327C69.052 102.147 68.4177 101.472 68.4177 100.629C68.4177 99.7658 69.0714 99.1094 70.0712 99.1094C71.0709 99.1094 71.6862 99.7658 71.7052 100.629C71.7052 101.472 71.0709 102.147 70.0518 102.147ZM82.051 112.141H79.1288V107.437C79.1288 106.255 78.7057 105.448 77.6483 105.448C76.8409 105.448 76.3601 105.992 76.1488 106.517C76.0715 106.705 76.0527 106.968 76.0527 107.23V112.141H73.1303C73.1303 112.141 73.1686 104.173 73.1303 103.348H76.0527V104.593C76.441 103.994 77.1359 103.142 78.6865 103.142C80.6093 103.142 82.051 104.398 82.051 107.099V112.141Z" fill="#C4C4C4"/>
<path d="M46 94C39.3736 94 34 99.3736 34 106C34 112.626 39.3736 118 46 118C52.6264 118 58 112.626 58 106C58 99.3736 52.6264 94 46 94ZM51.4791 103.356C51.4844 103.474 51.4869 103.593 51.4869 103.712C51.4869 107.352 48.7166 111.549 43.6502 111.549H43.6504H43.6502C42.0947 111.549 40.6473 111.093 39.4283 110.312C39.6439 110.337 39.8632 110.35 40.0853 110.35C41.3759 110.35 42.5635 109.91 43.5063 109.171C42.3005 109.148 41.2839 108.352 40.9331 107.258C41.101 107.29 41.2737 107.308 41.4507 107.308C41.7021 107.308 41.9457 107.274 42.1771 107.211C40.9168 106.958 39.9674 105.844 39.9674 104.511C39.9674 104.498 39.9674 104.487 39.9678 104.475C40.3389 104.682 40.7634 104.806 41.2153 104.82C40.4757 104.326 39.9896 103.483 39.9896 102.527C39.9896 102.023 40.126 101.55 40.3625 101.143C41.7208 102.809 43.7507 103.905 46.0399 104.021C45.9927 103.819 45.9683 103.609 45.9683 103.393C45.9683 101.872 47.2019 100.638 48.723 100.638C49.5153 100.638 50.2308 100.973 50.7335 101.509C51.361 101.385 51.9502 101.156 52.4825 100.84C52.2765 101.483 51.84 102.023 51.2712 102.364C51.8284 102.297 52.3594 102.149 52.8529 101.93C52.4843 102.482 52.0168 102.968 51.4791 103.356Z" fill="#C4C4C4"/>
<path d="M29 106C29 99.3736 23.6264 94 17 94C10.3736 94 5 99.3736 5 106C5 112.626 10.3736 118 17 118C17.0705 118 17.1406 117.999 17.2109 117.997V108.656H14.6328V105.651H17.2109V103.44C17.2109 100.876 18.7763 99.4803 21.0637 99.4803C22.159 99.4803 23.1005 99.562 23.375 99.5984V102.278H21.7977C20.5533 102.278 20.3124 102.87 20.3124 103.738V105.651H23.2878L22.9 108.656H20.3124V117.536C25.3282 116.098 29 111.477 29 106Z" fill="#C4C4C4"/>
<path d="M55 139L46.3725 148L44 145.637L50.3627 139L44 132.362L46.3725 130L55 139Z" fill="#333333"/>
<path d="M71.7172 146.063L70.9999 145.325L70.2827 146.063L63.9998 152.53V131H77.9998V152.53L71.7172 146.063ZM63.4487 153.097H63.4488H63.4487ZM78.5505 153.097C78.5506 153.097 78.5508 153.097 78.551 153.097H78.5509H78.5505Z" stroke="white" stroke-opacity="0.6" stroke-width="2"/>
<path d="M102.317 130H87.6831C87.3059 130 87 130.315 87 130.703V153.297C87 153.581 87.1665 153.838 87.4217 153.946C87.5062 153.983 87.595 154 87.683 154C87.8607 154 88.0355 153.929 88.1661 153.794L95.0001 146.76L101.834 153.794C102.029 153.995 102.323 154.055 102.578 153.946C102.834 153.838 103 153.581 103 153.297V130.703C103 130.315 102.694 130 102.317 130Z" fill="white"/>
<path d="M29 139L37.6275 148L40 145.637L33.6373 139L40 132.362L37.6275 130L29 139Z" fill="#333333"/>
<path d="M5 128V151L25 139.5L5 128Z" fill="white"/>
<path d="M132.802 35.5289C132.67 35.3314 132.492 35.1869 132.269 35.0953C132.127 35.0319 131.978 35.0001 131.822 35.0001V35H121.178C121.022 35 120.873 35.0317 120.731 35.0951C120.508 35.1867 120.33 35.3313 120.198 35.5287C120.066 35.7262 120 35.9446 120 36.1844V49.8156C120 50.0555 120.066 50.2738 120.198 50.4714C120.33 50.6688 120.508 50.8134 120.731 50.905C120.873 50.9683 121.022 51 121.178 51C121.496 51 121.777 50.8836 122.021 50.6512L126.5 46.1671L130.979 50.6513C131.216 50.8765 131.497 50.9893 131.822 50.9893C131.991 50.9893 132.14 50.9613 132.269 50.9049C132.492 50.8134 132.67 50.6688 132.802 50.4711C132.934 50.2738 133 50.0554 133 49.8156V36.1845C133 35.9448 132.934 35.7263 132.802 35.5289ZM131.7 49.4876L127.404 45.1942L126.5 44.2954L125.596 45.1942L121.3 49.4876V36.3538H131.7V49.4876Z" fill="#6F64E8"/>
<path d="M116.802 35.5289C116.67 35.3314 116.492 35.1869 116.269 35.0953C116.127 35.0319 115.978 35.0001 115.822 35.0001L105.178 35C105.022 35 104.873 35.0317 104.731 35.0951C104.508 35.1867 104.33 35.3313 104.198 35.5287C104.066 35.7262 104 35.9446 104 36.1844V49.8156C104 50.0555 104.066 50.2738 104.198 50.4714C104.33 50.6688 104.508 50.8134 104.731 50.905C104.873 50.9683 105.022 51 105.178 51C105.496 51 105.777 50.8836 106.021 50.6512L110.5 46.1671L114.979 50.6513C115.216 50.8765 115.497 50.9893 115.822 50.9893C115.991 50.9893 116.14 50.9613 116.269 50.9049C116.492 50.8134 116.67 50.6688 116.802 50.4711C116.934 50.2738 117 50.0554 117 49.8156V36.1845C117 35.9448 116.934 35.7263 116.802 35.5289Z" fill="#6F64E8"/>
<path d="M147.344 34C142.192 34 138 38.0375 138 43C138 47.9625 142.192 52 147.344 52C152.497 52 156.688 47.9625 156.688 43C156.688 38.0375 152.497 34 147.344 34ZM145.008 47.4999V38.5L152.016 42.9999L145.008 47.4999Z" fill="#498AC1"/>
<path fill-rule="evenodd" clip-rule="evenodd" d="M169.344 34C164.192 34 160 38.0375 160 43C160 47.9625 164.192 52 169.344 52C174.497 52 178.688 47.9625 178.688 43C178.688 38.0375 174.497 34 169.344 34ZM166 39H168.333V47H166V39ZM173 39H170.667V47H173V39Z" fill="#498AC1"/>
<path fill-rule="evenodd" clip-rule="evenodd" d="M104.5 119C111.404 119 117 113.404 117 106.5C117 99.5964 111.404 94 104.5 94C97.5964 94 92 99.5964 92 106.5C92 113.404 97.5964 119 104.5 119ZM97 103.688C97 101.099 99.0991 99 101.688 99H107.312C109.901 99 112 101.099 112 103.688V109.312C112 111.901 109.901 114 107.312 114H101.688C99.0991 114 97 111.901 97 109.312V103.688ZM107.312 112.594C109.122 112.594 110.594 111.122 110.594 109.312V103.688C110.594 101.878 109.122 100.406 107.312 100.406H101.688C99.8781 100.406 98.4062 101.878 98.4062 103.688V109.312C98.4062 111.122 99.8781 112.594 101.688 112.594H107.312ZM100.75 106.5C100.75 104.429 102.429 102.75 104.5 102.75C106.571 102.75 108.25 104.429 108.25 106.5C108.25 108.571 106.571 110.25 104.5 110.25C102.429 110.25 100.75 108.571 100.75 106.5ZM102.156 106.5C102.156 107.792 103.208 108.844 104.5 108.844C105.792 108.844 106.844 107.792 106.844 106.5C106.844 105.207 105.792 104.156 104.5 104.156C103.208 104.156 102.156 105.207 102.156 106.5ZM108.531 102.968C108.807 102.968 109.031 102.745 109.031 102.469C109.031 102.193 108.807 101.969 108.531 101.969C108.255 101.969 108.032 102.193 108.032 102.469C108.032 102.745 108.255 102.968 108.531 102.968Z" fill="white" fill-opacity="0.88"/>
<path fill-rule="evenodd" clip-rule="evenodd" d="M134.5 119C141.404 119 147 113.404 147 106.5C147 99.5964 141.404 94 134.5 94C127.596 94 122 99.5964 122 106.5C122 113.404 127.596 119 134.5 119ZM132.262 111.818L132.493 108.599L138.459 103.305C138.719 103.078 138.403 102.952 138.056 103.179L130.681 107.74L127.506 106.764C126.815 106.552 126.802 106.085 127.65 105.76L140.069 101.061C140.645 100.85 141.147 101.187 140.96 102.049V102.05L138.847 111.834C138.687 112.524 138.272 112.696 137.681 112.37L134.462 110.041L132.909 111.508C132.737 111.677 132.593 111.818 132.262 111.818Z" fill="white" fill-opacity="0.88"/>
<path d="M161.452 9.00013L158.061 5.60896C157.98 5.52756 157.98 5.3956 158.061 5.31419L159.314 4.06108C159.353 4.02199 159.406 4 159.461 4C159.517 4 159.57 4.02199 159.609 4.06108L163 7.45235L166.391 4.06108C166.469 3.98291 166.608 3.98291 166.686 4.06108L167.939 5.31419C168.02 5.3956 168.02 5.52756 167.939 5.60896L164.548 9.00013L167.939 12.3913C168.02 12.4727 168.02 12.6047 167.939 12.6861L166.686 13.9391C166.647 13.9782 166.594 14.0002 166.539 14.0002C166.483 14.0002 166.43 13.9782 166.391 13.9391L163 10.5478L159.609 13.9391C159.57 13.9782 159.517 14.0002 159.461 14.0002C159.406 14.0002 159.353 13.9782 159.314 13.9391L158.061 12.6861C157.98 12.6047 157.98 12.4726 158.061 12.3913L161.452 9.00013Z" fill="white"/>
<path d="M138 18H153V15.6667H138V18ZM138 12.1667H153V9.83333H138V12.1667ZM138 4V6.33333H153V4H138Z" fill="white"/>
<path d="M168.119 66.1356L173.458 71.4746H155V74.5254H173.458L168.119 79.8644L170.254 82L179.407 73L170.254 64L168.119 66.1356Z" fill="#8360C3"/>
<path d="M166.288 88.1356L160.949 93.4746H179.407V96.5254H160.949L166.288 101.864L164.153 104L155 95L164.153 86L166.288 88.1356Z" fill="#8360C3"/>
<path d="M25 195C36.0457 195 45 186.046 45 175C45 163.954 36.0457 155 25 155C13.9543 155 5 163.954 5 175C5 186.046 13.9543 195 25 195Z" fill="white"/>
<path d="M26.0994 175L30.7719 170.327C31.076 170.023 31.076 169.532 30.7719 169.228C30.468 168.924 29.9766 168.924 29.6726 169.228L24.9999 173.901L20.3274 169.228C20.0233 168.924 19.532 168.924 19.2281 169.228C18.924 169.532 18.924 170.023 19.2281 170.327L23.9006 175L19.2281 179.673C18.924 179.977 18.924 180.468 19.2281 180.772C19.3795 180.924 19.5787 181 19.7777 181C19.9767 181 20.1758 180.924 20.3274 180.772L24.9999 176.099L29.6726 180.772C29.8242 180.924 30.0233 181 30.2223 181C30.4213 181 30.6203 180.924 30.7719 180.772C31.076 180.468 31.076 179.977 30.7719 179.673L26.0994 175Z" fill="black"/>
<path d="M144.099 136L148.772 131.327C149.076 131.023 149.076 130.532 148.772 130.228C148.468 129.924 147.977 129.924 147.673 130.228L143 134.901L138.327 130.228C138.023 129.924 137.532 129.924 137.228 130.228C136.924 130.532 136.924 131.023 137.228 131.327L141.901 136L137.228 140.673C136.924 140.977 136.924 141.468 137.228 141.772C137.38 141.924 137.579 142 137.778 142C137.977 142 138.176 141.924 138.327 141.772L143 137.099L147.673 141.772C147.824 141.924 148.023 142 148.222 142C148.421 142 148.62 141.924 148.772 141.772C149.076 141.468 149.076 140.977 148.772 140.673L144.099 136Z" fill="black"/>
<path d="M116.872 130.19C117.126 129.937 117.525 129.937 117.779 130.19C118.024 130.436 118.024 130.844 117.779 131.088L113.18 135.687H128.356C128.71 135.687 129 135.969 129 136.322C129 136.676 128.71 136.966 128.356 136.966H113.18L117.779 141.557C118.024 141.811 118.024 142.219 117.779 142.464C117.525 142.718 117.126 142.718 116.872 142.464L111.184 136.776C110.939 136.531 110.939 136.123 111.184 135.878L116.872 130.19Z" fill="#1E201D"/>
<path d="M67 195C75.8366 195 83 187.837 83 179C83 170.163 75.8366 163 67 163C58.1634 163 51 170.163 51 179C51 187.837 58.1634 195 67 195Z" fill="#6659B8"/>
<path d="M59.8276 184C59.9363 184 60.044 183.979 60.1444 183.937C60.2448 183.896 60.3361 183.835 60.4128 183.758L65.069 179.117L66.9665 181.008C67.0434 181.085 67.1346 181.146 67.235 181.187C67.3354 181.229 67.4431 181.25 67.5517 181.25C67.6604 181.25 67.768 181.229 67.8685 181.187C67.9689 181.146 68.0601 181.085 68.1369 181.008L73.3445 175.817L73.3442 177.675C73.3442 177.894 73.4314 178.104 73.5866 178.258C73.7418 178.413 73.9523 178.5 74.1718 178.5C74.3913 178.5 74.6018 178.413 74.757 178.258C74.9122 178.104 74.9994 177.894 74.9994 177.675L75 173.825C75 173.606 74.9128 173.396 74.7576 173.242C74.6024 173.087 74.3919 173 74.1724 173H70.3104C70.0909 173 69.8804 173.087 69.7252 173.242C69.57 173.396 69.4828 173.606 69.4828 173.825C69.4828 174.044 69.57 174.254 69.7252 174.408C69.8804 174.563 70.0909 174.65 70.3104 174.65H72.1745L67.5517 179.258L65.6542 177.367C65.5773 177.29 65.4861 177.229 65.3857 177.188C65.2853 177.146 65.1777 177.125 65.069 177.125C64.9603 177.125 64.8527 177.146 64.7523 177.188C64.6519 177.229 64.5606 177.29 64.4838 177.367L59.2424 182.592C59.1267 182.707 59.0478 182.854 59.0159 183.014C58.984 183.174 59.0004 183.34 59.063 183.491C59.1256 183.641 59.2317 183.77 59.3678 183.861C59.5039 183.952 59.6639 184 59.8276 184Z" fill="white" stroke="white"/>
<path d="M115.7 176.653C116.682 177.283 116.682 178.717 115.7 179.347L98.6637 190.276C97.5988 190.959 96.1998 190.194 96.1998 188.929V167.071C96.1998 165.806 97.5988 165.041 98.6637 165.724L115.7 176.653Z" fill="#E9E6E6"/>
<path d="M119.051 176.676C119.986 177.311 119.986 178.689 119.051 179.324L103.099 190.159C102.037 190.881 100.6 190.12 100.6 188.835V167.165C100.6 165.88 102.037 165.119 103.099 165.841L119.051 176.676Z" fill="url(#paint0_linear_401_2)"/>
<defs>
<linearGradient id="paint0_linear_401_2" x1="121" y1="178" x2="98.8105" y2="178" gradientUnits="userSpaceOnUse">
<stop stop-color="#ED5E28"/>
<stop offset="1" stop-color="#FF8821"/>
</linearGradient>
</defs>
</svg>
