<svg width="140" height="288" viewBox="0 0 140 288" fill="none" xmlns="http://www.w3.org/2000/svg">
<path opacity="0.24" d="M15.1 6.37288L9.85 12.3051H28V15.6949H9.85L15.1 21.6271L13 24L4 14L13 4L15.1 6.37288Z" fill="#827EA6"/>
<path d="M69.4 5.66102L65.9 9.81356H78V12.1864H65.9L69.4 16.339L68 18L62 11L68 4L69.4 5.66102Z" fill="#8E8E8E"/>
<path d="M90.6 5.66102L94.1 9.81356H82V12.1864H94.1L90.6 16.339L92 18L98 11L92 4L90.6 5.66102Z" fill="#8E8E8E"/>
<path d="M46.9 6.37288L52.15 12.3051H34V15.6949H52.15L46.9 21.6271L49 24L58 14L49 4L46.9 6.37288Z" fill="#6659B8"/>
<path d="M18 29.4457L16.588 28L11 33.2315L5.41197 28L4 29.4457L11 36L18 29.4457Z" fill="#4A4A4A" fill-opacity="0.5"/>
<g filter="url(#filter0_d)">
<path d="M123 49.5C129.904 49.5 135.5 43.9036 135.5 37C135.5 30.0964 129.904 24.5 123 24.5C116.096 24.5 110.5 30.0964 110.5 37C110.5 43.9036 116.096 49.5 123 49.5Z" fill="white" stroke="#EEEEEE"/>
<path d="M127.116 32.0006L118 41.1168L118.883 42L127.998 32.8838L127.116 32.0006Z" fill="#8E8E8E"/>
<path d="M118.884 32L118.002 32.8832L127.117 41.9994L128 41.1162L118.884 32Z" fill="#8E8E8E"/>
</g>
<path d="M108.582 14.2935L108.581 14.2929C108.42 14.1439 108.209 14.0687 108 14.0687C107.791 14.0687 107.58 14.1437 107.419 14.2933L107.418 14.2935L102.5 18.8544V4.5H113.5V18.8544L108.582 14.2935Z" stroke="white"/>
<path d="M124.242 14.6601L130 20V4H118V20L123.758 14.6601C123.821 14.6018 123.909 14.5687 124 14.5687C124.091 14.5687 124.179 14.6018 124.242 14.6601Z" fill="white"/>
<path d="M40.3192 51.1844L39.0215 51.9089C39.4228 52.6221 39.9303 53.2684 40.5296 53.8301L41.549 52.7509C41.0602 52.2928 40.6464 51.7657 40.3192 51.1844Z" fill="white" stroke="white" stroke-width="0.5"/>
<path d="M42.6081 53.5585L41.8284 54.8204C42.5299 55.2504 43.2898 55.5687 44.0871 55.7663L44.4464 54.3285C43.7978 54.1677 43.1793 53.9086 42.6081 53.5585Z" fill="white" stroke="white" stroke-width="0.5"/>
<path d="M46.9827 54.4557C46.6769 54.4991 46.3639 54.5212 46.0521 54.5212C46.0519 54.5212 46.0517 54.5212 46.0517 54.5212H46.0329C45.9442 54.5212 45.8544 54.5194 45.766 54.5158L45.7064 55.9935C45.8146 55.9978 45.9244 56 46.0331 56H46.0515C46.0518 56 46.0521 56 46.0524 56C46.4337 56 46.8173 55.973 47.1923 55.9197L46.9827 54.4557Z" fill="white" stroke="white" stroke-width="0.5"/>
<path d="M49.1872 53.7255C48.8956 53.8844 48.5897 54.0218 48.278 54.1341L48.7829 55.5248C49.1659 55.3869 49.5417 55.2179 49.8998 55.0229L49.1872 53.7255Z" fill="white" stroke="white" stroke-width="0.5"/>
<path d="M50.9978 52.2714C50.78 52.5215 50.541 52.7571 50.2875 52.9716L51.2488 54.0986C51.5594 53.8358 51.8524 53.547 52.1195 53.2403L50.9978 52.2714Z" fill="white" stroke="white" stroke-width="0.5"/>
<path d="M55.9479 47.3104L54.0672 49.1839V48.0015C54.0672 45.8643 53.2316 43.8549 51.7143 42.3436C50.1969 40.8323 48.1795 40 46.0336 40C43.8878 40 41.8704 40.8323 40.353 42.3436C38.8356 43.8548 38 45.8642 38 48.0015C38 48.8238 38.1249 49.6349 38.3712 50.4123L39.79 49.9662C39.5894 49.3334 39.4877 48.6723 39.4877 48.0015C39.4877 44.4065 42.4242 41.4818 46.0336 41.4818C49.6431 41.4818 52.5795 44.4065 52.5795 48.0015V49.1718L50.6873 47.2918L49.6366 48.3408L53.3319 52.0122L57 48.358L55.9479 47.3104Z" fill="white" stroke="white" stroke-width="0.5"/>
<path d="M52 60H4V108H52V60Z" fill="#4167B2"/>
<path d="M32.0484 75.985H34.2927V72.169C33.9055 72.117 32.5739 72 31.0231 72C27.7873 72 25.5707 73.987 25.5707 77.639V81H22V85.266H25.5707V96H29.9486V85.267H33.3749L33.9188 81.001H29.9476V78.062C29.9486 76.829 30.2887 75.985 32.0484 75.985Z" fill="white"/>
<path d="M52 110H4V158H52V110Z" fill="#FF4500"/>
<path d="M102 110H54V158H102V110Z" fill="#0C61BF"/>
<path d="M52 160H4V208H52V160Z" fill="#03A9F4"/>
<path d="M40 176.309C39.1075 176.7 38.1565 176.959 37.165 177.085C38.185 176.476 38.9635 175.519 39.3295 174.366C38.3785 174.933 37.3285 175.334 36.2095 175.557C35.3065 174.596 34.0195 174 32.6155 174C29.8915 174 27.6985 176.211 27.6985 178.922C27.6985 179.312 27.7315 179.686 27.8125 180.043C23.722 179.844 20.1025 177.884 17.671 174.897C17.2465 175.634 16.9975 176.477 16.9975 177.384C16.9975 179.088 17.875 180.598 19.183 181.473C18.3925 181.458 17.617 181.228 16.96 180.867C16.96 180.882 16.96 180.901 16.96 180.921C16.96 183.312 18.6655 185.298 20.902 185.755C20.5015 185.865 20.065 185.917 19.612 185.917C19.297 185.917 18.979 185.899 18.6805 185.833C19.318 187.782 21.127 189.214 23.278 189.261C21.604 190.57 19.4785 191.36 17.1775 191.36C16.774 191.36 16.387 191.341 16 191.292C18.1795 192.698 20.7625 193.5 23.548 193.5C32.602 193.5 37.552 186 37.552 179.499C37.552 179.281 37.5445 179.072 37.534 178.863C38.5105 178.17 39.331 177.305 40 176.309Z" fill="white"/>
<path d="M21 246C30.3888 246 38 238.389 38 229C38 219.611 30.3888 212 21 212C11.6112 212 4 219.611 4 229C4 238.389 11.6112 246 21 246Z" fill="#1877F2"/>
<path d="M25.2738 229.665H22.2403V240.778H17.6444V229.665H15.4586V225.76H17.6444V223.232C17.6444 221.425 18.5029 218.595 22.2812 218.595L25.6856 218.609V222.4H23.2155C22.8104 222.4 22.2406 222.603 22.2406 223.465V225.763H25.6753L25.2738 229.665Z" fill="white"/>
<path d="M58.9998 246C68.3886 246 75.9997 238.389 75.9997 229C75.9997 219.611 68.3886 212 58.9998 212C49.6111 212 42 219.611 42 229C42 238.389 49.6111 246 58.9998 246Z" fill="#1DA1F2"/>
<path d="M69.4123 224.217C68.6838 224.54 67.9002 224.759 67.0783 224.856C67.9174 224.354 68.5614 223.558 68.8653 222.609C68.0802 223.074 67.2101 223.412 66.285 223.594C65.5437 222.805 64.4877 222.312 63.3182 222.312C61.0745 222.312 59.2548 224.131 59.2548 226.375C59.2548 226.694 59.2908 227.004 59.3605 227.301C55.9835 227.132 52.9892 225.514 50.9849 223.055C50.6352 223.655 50.4346 224.354 50.4346 225.098C50.4346 226.508 51.1524 227.752 52.2422 228.48C51.5764 228.459 50.9494 228.277 50.4018 227.971C50.4015 227.989 50.4015 228.006 50.4015 228.023C50.4015 229.992 51.8028 231.634 53.6613 232.007C53.3207 232.1 52.961 232.15 52.591 232.15C52.3285 232.15 52.0743 232.125 51.8264 232.077C52.3434 233.691 53.8437 234.866 55.6223 234.899C54.2313 235.989 52.4795 236.639 50.5752 236.639C50.2479 236.639 49.9236 236.62 49.6063 236.582C51.4037 237.735 53.5401 238.408 55.8347 238.408C63.3088 238.408 67.3962 232.216 67.3962 226.846C67.3962 226.67 67.3923 226.494 67.3844 226.32C68.179 225.747 68.8678 225.032 69.4123 224.217Z" fill="#F1F2F2"/>
<path d="M97 246C106.389 246 114 238.389 114 229C114 219.611 106.389 212 97 212C87.6112 212 80 219.611 80 229C80 238.389 87.6112 246 97 246Z" fill="#0C61BF"/>
<path d="M107.157 230.368V237.377H103.094V230.838C103.094 229.196 102.507 228.074 101.036 228.074C99.9131 228.074 99.2462 228.829 98.9516 229.56C98.8446 229.821 98.817 230.184 98.817 230.551V237.376H94.7533C94.7533 237.376 94.8078 226.301 94.7533 225.155H98.8173V226.887C98.8092 226.9 98.7977 226.914 98.7904 226.927H98.8173V226.887C99.3574 226.056 100.32 224.868 102.48 224.868C105.153 224.868 107.157 226.615 107.157 230.368ZM90.5022 219.264C89.1122 219.264 88.2027 220.176 88.2027 221.375C88.2027 222.548 89.0858 223.487 90.4489 223.487H90.4752C91.8926 223.487 92.7738 222.548 92.7738 221.375C92.7468 220.176 91.8926 219.264 90.5022 219.264ZM88.4443 237.377H92.5065V225.155H88.4443V237.377Z" fill="#F1F2F2"/>
<path d="M90 136.713V146H84.8554V137.336C84.8554 135.16 84.1122 133.673 82.2496 133.673C80.8278 133.673 79.9833 134.674 79.6103 135.642C79.4748 135.988 79.4399 136.469 79.4399 136.955V145.999H74.2944C74.2944 145.999 74.3634 131.324 74.2944 129.806H79.4402V132.101C79.43 132.118 79.4154 132.136 79.4062 132.154H79.4402V132.101C80.1241 130.999 81.343 129.425 84.078 129.425C87.4625 129.425 90 131.74 90 136.713ZM68.9116 122C67.1516 122 66 123.208 66 124.797C66 126.351 67.1182 127.596 68.8441 127.596H68.8774C70.6722 127.596 71.788 126.351 71.788 124.797C71.7538 123.208 70.6722 122 68.9116 122ZM66.3059 146H71.4495V129.806H66.3059V146Z" fill="#F1F2F2"/>
<path d="M21 284C30.3888 284 38 276.389 38 267C38 257.611 30.3888 250 21 250C11.6112 250 4 257.611 4 267C4 276.389 11.6112 284 21 284Z" fill="#DF0022"/>
<path d="M22.3722 272.764C21.087 272.665 20.547 272.028 19.539 271.416C18.9851 274.322 18.3081 277.109 16.3029 278.564C15.6832 274.171 17.2114 270.872 17.9211 267.369C16.7114 265.333 18.0666 261.234 20.6182 262.244C23.7586 263.486 17.8993 269.816 21.8328 270.607C25.9393 271.432 27.6157 263.481 25.0689 260.895C21.3894 257.161 14.3586 260.81 15.2231 266.155C15.4337 267.462 16.7841 267.859 15.7625 269.662C13.4076 269.14 12.7052 267.283 12.7955 264.807C12.9412 260.754 16.4374 257.916 19.9442 257.523C24.3792 257.027 28.5418 259.152 29.1164 263.323C29.7627 268.032 27.1142 273.131 22.3722 272.764Z" fill="#F1F2F2"/>
<path d="M102 84C102 70.7452 91.2548 60 78 60C64.7452 60 54 70.7452 54 84C54 97.2548 64.7452 108 78 108C91.2548 108 102 97.2548 102 84Z" fill="#4CAF50"/>
<path fill-rule="evenodd" clip-rule="evenodd" d="M87.8114 74.1782C85.2082 71.5844 81.7462 70.1554 78.0579 70.1538C70.4579 70.1538 64.2726 76.3094 64.2695 83.8751C64.2685 86.2936 64.9033 88.6545 66.11 90.7355L64.1538 97.8461L71.4633 95.9379C73.4773 97.0313 75.7448 97.6075 78.0523 97.6082H78.0581C85.6573 97.6082 91.8433 91.4521 91.8462 83.8861C91.8477 80.2193 90.4148 76.7718 87.8114 74.1782ZM78.0579 95.2907H78.0532C75.9968 95.2899 73.9801 94.7399 72.2202 93.7009L71.8019 93.4536L67.4644 94.5861L68.6222 90.3773L68.3496 89.9458C67.2024 88.1298 66.5966 86.0309 66.5976 83.8759C66.6 77.5875 71.7411 72.4714 78.0625 72.4714C81.1236 72.4725 84.0011 73.6603 86.1647 75.8162C88.3284 77.972 89.5193 80.8376 89.5183 83.8852C89.5155 90.1741 84.3747 95.2907 78.0579 95.2907ZM84.3441 86.7486C83.9997 86.5769 82.3058 85.7477 81.9899 85.6331C81.6743 85.5186 81.4444 85.4617 81.2149 85.8048C80.9852 86.1479 80.325 86.9203 80.1239 87.149C79.9229 87.3779 79.7221 87.4066 79.3775 87.2349C79.0329 87.0633 77.9229 86.7011 76.6069 85.533C75.5828 84.6238 74.8914 83.501 74.6903 83.1579C74.4896 82.8145 74.6886 82.6468 74.8414 82.4582C75.2144 81.9973 75.5879 81.514 75.7027 81.2854C75.8176 81.0565 75.7601 80.8562 75.6738 80.6847C75.5879 80.5131 74.8988 78.8254 74.6118 78.1387C74.3319 77.4704 74.0482 77.5607 73.8365 77.5502C73.6358 77.5402 73.406 77.5382 73.1762 77.5382C72.9466 77.5382 72.5733 77.6239 72.2574 77.9673C71.9417 78.3106 71.0518 79.14 71.0518 80.8276C71.0518 82.5153 72.2863 84.1457 72.4585 84.3745C72.6307 84.6034 74.888 88.0666 78.3439 89.5516C79.1659 89.9052 79.8075 90.116 80.308 90.274C81.1334 90.535 81.8843 90.4982 82.478 90.4099C83.14 90.3114 84.5162 89.5804 84.8035 88.7796C85.0905 87.9786 85.0905 87.2922 85.0043 87.149C84.9183 87.006 84.6885 86.9203 84.3441 86.7486Z" fill="white"/>
<path d="M30.4245 137.627C30.5166 137.718 30.5166 137.866 30.4245 137.959C29.9208 138.459 29.131 138.703 28.0076 138.703L27.9989 138.701L27.9903 138.703C26.8679 138.703 26.0771 138.459 25.5733 137.957C25.4813 137.866 25.4813 137.718 25.5733 137.627C25.6643 137.536 25.8138 137.536 25.9059 137.627C26.3165 138.035 26.9979 138.235 27.9903 138.235L27.9989 138.237L28.0076 138.235C28.9988 138.235 29.6803 138.035 30.0919 137.627C30.184 137.536 30.3335 137.536 30.4245 137.627ZM26.6978 135.008C26.6978 134.458 26.2493 134.012 25.699 134.012C25.1476 134.012 24.6991 134.458 24.6991 135.008C24.6991 135.556 25.1476 136.002 25.699 136.002C26.2493 136.003 26.6978 135.557 26.6978 135.008ZM41 134C41 141.179 35.1793 147 28 147C20.8207 147 15 141.179 15 134C15 126.821 20.8207 121 28 121C35.1793 121 41 126.821 41 134ZM35.5833 133.86C35.5833 132.938 34.8304 132.189 33.9042 132.189C33.4524 132.189 33.0429 132.37 32.7407 132.66C31.5967 131.907 30.0486 131.428 28.3358 131.366L29.2729 128.415L31.8112 129.01L31.8079 129.047C31.8079 129.801 32.4243 130.414 33.1816 130.414C33.9388 130.414 34.5542 129.801 34.5542 129.047C34.5542 128.293 33.9388 127.68 33.1816 127.68C32.5998 127.68 32.1047 128.043 31.9043 128.551L29.1689 127.91C29.0498 127.88 28.9273 127.95 28.8905 128.067L27.8451 131.358C26.0511 131.379 24.4272 131.863 23.2323 132.637C22.9322 132.361 22.5346 132.188 22.0947 132.188C21.1696 132.189 20.4167 132.938 20.4167 133.86C20.4167 134.473 20.7536 135.004 21.2487 135.296C21.2162 135.473 21.1945 135.654 21.1945 135.837C21.1945 138.308 24.2332 140.319 27.9686 140.319C31.7039 140.319 34.7427 138.308 34.7427 135.837C34.7427 135.664 34.7243 135.494 34.695 135.326C35.2215 135.043 35.5833 134.496 35.5833 133.86ZM30.3053 134.013C29.7539 134.013 29.3065 134.459 29.3065 135.009C29.3065 135.557 29.755 136.003 30.3053 136.003C30.8557 136.003 31.3042 135.557 31.3042 135.009C31.3042 134.459 30.8568 134.013 30.3053 134.013Z" fill="white"/>
<defs>
<filter id="filter0_d" x="108" y="22" width="30" height="30" filterUnits="userSpaceOnUse" color-interpolation-filters="sRGB">
<feFlood flood-opacity="0" result="BackgroundImageFix"/>
<feColorMatrix in="SourceAlpha" type="matrix" values="0 0 0 0 0 0 0 0 0 0 0 0 0 0 0 0 0 0 127 0" result="hardAlpha"/>
<feOffset/>
<feGaussianBlur stdDeviation="1"/>
<feColorMatrix type="matrix" values="0 0 0 0 0 0 0 0 0 0 0 0 0 0 0 0 0 0 0.12 0"/>
<feBlend mode="normal" in2="BackgroundImageFix" result="effect1_dropShadow"/>
<feBlend mode="normal" in="SourceGraphic" in2="effect1_dropShadow" result="shape"/>
</filter>
</defs>
</svg>
